<?xml version="1.0" standalone="no"?>
<!DOCTYPE svg PUBLIC "-//W3C//DTD SVG 20010904//EN"
 "http://www.w3.org/TR/2001/REC-SVG-20010904/DTD/svg10.dtd">
<svg version="1.0" xmlns="http://www.w3.org/2000/svg"
 width="1280.000000pt" height="1280.000000pt" viewBox="0 0 1280.000000 1280.000000"
 preserveAspectRatio="xMidYMid meet">

<g transform="translate(0.000000,1280.000000) scale(0.100000,-0.100000)"
fill="#000000" stroke="none">
<path d="M6040 12789 c-881 -55 -1690 -268 -2465 -649 -1919 -943 -3244 -2791
-3519 -4910 -74 -573 -74 -1087 0 -1660 275 -2119 1600 -3967 3519 -4910 1363
-670 2898 -834 4370 -469 1828 455 3363 1692 4195 3384 232 471 399 948 515
1474 26 117 30 151 15 116 -15 -34 -11 -2 15 125 14 68 25 132 25 144 0 11 6
32 13 47 8 14 17 52 21 85 4 32 11 95 17 139 5 44 16 177 24 295 75 1094 -151
2222 -645 3225 -945 1921 -2791 3244 -4910 3519 -400 52 -828 68 -1190 45z
m2030 -621 c848 -195 1455 -459 1930 -841 142 -114 356 -336 467 -484 206
-274 378 -624 478 -970 14 -49 28 -95 30 -104 5 -14 -14 -17 -157 -22 -185 -6
-297 -24 -431 -67 -271 -87 -464 -243 -665 -540 -41 -61 -316 -550 -309 -550
2 0 38 35 82 78 245 238 577 395 867 409 132 6 187 -3 251 -44 l42 -27 -35 -9
c-19 -5 -75 -23 -123 -38 -300 -98 -596 -334 -683 -547 -21 -52 -32 -122 -19
-122 3 0 40 24 83 54 203 141 507 299 732 379 294 106 562 133 727 75 40 -15
33 -28 -15 -28 -36 0 -169 -32 -267 -65 -167 -56 -450 -228 -640 -388 -126
-106 -331 -316 -418 -427 -36 -46 -64 -86 -62 -88 2 -2 52 24 112 57 347 193
780 374 1105 460 406 108 732 116 915 23 77 -40 71 -47 -33 -44 -360 14 -830
-139 -1262 -409 -192 -119 -349 -245 -517 -413 -178 -179 -263 -290 -335 -438
l-47 -97 23 -68 c50 -149 54 -292 11 -421 -31 -95 -82 -146 -212 -211 -122
-61 -170 -98 -183 -144 -6 -18 -13 -98 -16 -178 -9 -226 -46 -395 -125 -579
-40 -92 -142 -279 -152 -280 -3 0 -9 28 -12 63 -3 34 -29 277 -57 540 l-51
478 39 157 c51 200 66 316 59 440 -8 143 -50 255 -133 358 l-33 41 1 359 c1
442 -18 625 -88 878 -51 181 -108 307 -241 536 -476 814 -1011 1346 -1675
1665 -234 112 -491 187 -798 235 -381 58 -963 54 -1465 -10 -1422 -182 -2963
-807 -3834 -1554 -124 -106 -273 -256 -349 -348 -30 -38 -56 -68 -59 -68 -7 0
84 166 155 280 513 828 1476 1505 2737 1925 1001 333 2129 462 2919 335 89
-14 219 -45 274 -64 l43 -16 15 37 c48 115 169 251 275 310 208 116 486 141
809 71 97 -20 279 -75 292 -86 4 -4 -75 -7 -175 -8 -203 0 -296 -15 -429 -66
-174 -66 -296 -206 -309 -352 l-4 -39 223 -105 223 -105 16 24 c34 50 112 117
169 145 53 26 69 29 159 29 74 0 122 -6 188 -24 48 -13 87 -27 87 -31 0 -4
-21 -10 -47 -14 -73 -9 -163 -57 -209 -109 -46 -52 -64 -102 -64 -176 0 -59 0
-60 120 -138 119 -78 199 -145 320 -270 189 -194 337 -399 554 -768 65 -110
150 -251 188 -313 l70 -113 130 193 c148 221 249 349 345 439 137 128 315 244
506 330 l99 44 -7 54 c-10 82 -60 248 -103 347 -262 595 -884 1060 -2062 1541
-113 46 -189 81 -170 78 19 -4 114 -25 210 -47z m-1970 -1793 c337 -36 567
-98 805 -216 105 -52 295 -174 295 -189 0 -3 -51 0 -112 6 -483 52 -1028 42
-1443 -26 -680 -113 -1220 -357 -1605 -726 -55 -53 -99 -99 -97 -101 2 -2 21
4 43 13 458 192 1604 416 2429 475 238 17 495 0 693 -46 258 -60 531 -202 744
-389 130 -114 632 -624 697 -709 142 -185 205 -369 221 -637 10 -190 -4 -606
-25 -700 -43 -197 -125 -390 -302 -708 -269 -486 -393 -854 -448 -1327 -9 -77
-20 -165 -23 -195 l-7 -54 -92 94 c-203 208 -314 397 -380 648 -21 81 -26 126
-30 272 -2 96 0 195 4 220 l9 45 53 -100 c69 -129 100 -174 157 -224 38 -33
150 -89 159 -79 2 2 -9 37 -23 78 -25 70 -26 86 -26 245 0 94 2 256 5 360 3
162 1 200 -15 260 -21 81 -80 197 -133 262 l-36 44 29 -7 c170 -42 285 -153
378 -369 19 -42 36 -78 39 -81 9 -9 76 120 108 208 42 115 59 211 59 339 0
235 -79 447 -237 634 -129 154 -343 287 -548 342 -87 23 -121 26 -260 27 -88
1 -175 -2 -192 -6 -46 -10 -44 15 6 62 122 117 504 178 786 127 228 -42 456
-143 608 -269 26 -21 47 -35 47 -30 0 5 -7 15 -16 23 -9 7 -67 80 -130 161
-352 455 -571 658 -898 833 -245 131 -605 225 -861 225 -243 0 -709 -59 -1105
-141 -256 -52 -610 -151 -580 -162 8 -3 53 -18 100 -33 266 -86 537 -248 748
-449 358 -341 553 -762 593 -1279 19 -250 -6 -483 -90 -826 -66 -272 -75 -333
-75 -545 0 -205 12 -296 59 -460 176 -608 753 -1096 1633 -1381 73 -23 146
-46 163 -49 17 -4 27 -11 22 -15 -14 -14 -250 -86 -418 -128 -426 -108 -1004
-193 -1330 -195 -409 -3 -856 155 -1190 421 -223 177 -358 328 -730 810 -12
17 0 10 36 -19 171 -140 386 -233 637 -275 141 -24 382 -15 514 19 123 32 217
77 257 122 45 51 41 57 -31 48 -90 -11 -251 -8 -338 7 -537 92 -929 583 -870
1092 14 125 64 284 122 386 l42 72 22 -54 c91 -224 233 -373 383 -402 39 -8
39 -7 -17 65 -52 69 -90 153 -113 249 -20 81 -21 101 -13 277 5 105 9 258 8
340 0 135 -3 158 -26 225 -15 41 -25 77 -23 79 12 12 112 -37 155 -76 61 -55
91 -97 161 -228 l54 -100 7 50 c12 91 8 299 -7 393 -44 268 -177 518 -393 739
l-95 98 -8 -40 c-4 -22 -15 -105 -24 -185 -52 -481 -175 -847 -460 -1364 -267
-485 -308 -625 -320 -1076 -12 -473 28 -660 192 -910 42 -63 131 -160 347
-379 333 -336 417 -412 559 -509 243 -165 511 -261 816 -293 603 -62 2298 219
2905 482 l91 40 -65 -67 c-168 -172 -362 -309 -612 -434 -479 -238 -1113 -421
-2047 -590 -123 -23 -124 -23 -90 -37 64 -27 204 -63 323 -83 817 -139 2226
145 3578 721 1110 472 1976 1042 2423 1594 66 82 170 241 201 309 23 50 40 76
29 44 -2 -7 -16 -62 -30 -123 -95 -404 -312 -1018 -390 -1104 -18 -20 -69 -77
-112 -126 -320 -362 -915 -769 -1571 -1075 -1412 -658 -3029 -942 -4151 -729
-386 73 -703 205 -1046 434 -486 325 -865 747 -1250 1390 -170 284 -246 460
-299 697 -50 222 -60 341 -60 749 l-1 376 -43 57 c-96 127 -127 242 -119 440
6 136 18 208 68 387 l29 105 -55 513 c-30 282 -55 525 -55 542 0 16 -4 29 -8
29 -7 0 -92 -139 -127 -208 -95 -191 -154 -453 -155 -686 0 -171 -18 -195
-220 -295 -99 -49 -133 -78 -166 -143 -63 -123 -69 -297 -18 -461 l27 -87 -52
-105 c-260 -524 -1085 -1094 -1763 -1220 -121 -22 -303 -36 -377 -28 -73 7
-75 -2 -8 -41 89 -50 156 -61 362 -60 251 0 456 38 765 141 276 92 667 266
939 419 l85 47 -24 -34 c-53 -76 -171 -210 -280 -320 -355 -352 -754 -581
-1088 -625 -57 -7 -58 -15 -2 -33 301 -96 895 90 1415 443 49 34 96 65 104 70
26 16 3 -93 -37 -168 -47 -89 -181 -231 -299 -316 -133 -95 -358 -198 -475
-217 -21 -3 -38 -9 -38 -14 0 -15 84 -57 138 -68 73 -15 143 -14 248 4 267 47
545 191 757 394 73 70 95 86 80 61 -11 -19 -67 -120 -123 -225 -222 -410 -383
-606 -606 -736 -202 -118 -404 -168 -690 -172 l-135 -1 7 -29 c14 -65 85 -280
129 -392 299 -757 860 -1305 1702 -1664 160 -68 462 -173 663 -231 169 -48
641 -162 647 -156 2 2 -41 20 -95 41 -397 155 -847 369 -1115 529 -285 171
-474 314 -658 496 -267 265 -433 561 -492 881 l-14 76 115 53 c232 109 391
219 542 376 100 104 159 181 305 399 59 88 111 164 115 169 9 9 28 -19 210
-319 178 -294 359 -566 466 -700 48 -60 149 -171 223 -246 118 -117 173 -164
325 -274 23 -17 28 -29 33 -81 4 -46 1 -70 -13 -99 -29 -62 -131 -114 -258
-131 -25 -4 -46 -10 -46 -14 0 -17 188 -64 275 -68 128 -6 187 17 278 110 50
50 73 67 86 63 10 -3 108 -48 217 -99 129 -61 200 -100 202 -111 8 -36 -66
-161 -128 -218 -133 -123 -313 -177 -745 -223 l-60 -7 70 -24 c201 -69 392
-103 585 -102 267 0 461 68 602 212 56 56 128 166 143 215 5 16 12 21 24 17
140 -44 382 -88 586 -106 162 -14 615 -14 795 0 1348 107 2667 565 3585 1246
474 351 851 768 1085 1202 30 56 56 100 58 98 7 -7 -198 -412 -289 -570 -403
-703 -951 -1334 -1622 -1868 -997 -795 -2110 -1242 -3367 -1353 -220 -20 -732
-22 -950 -5 -1187 94 -2276 483 -3290 1175 -284 194 -495 368 -764 634 -507
501 -912 1067 -1241 1737 -250 508 -410 963 -529 1500 -104 468 -141 827 -141
1350 1 393 11 549 59 872 l24 158 61 104 c431 727 1129 1391 1939 1845 242
135 674 318 1107 467 768 264 1456 419 2120 478 158 14 599 12 745 -4z m2801
-3647 c18 -107 -16 -257 -103 -461 l-50 -119 52 -111 c65 -138 112 -282 135
-410 26 -148 17 -344 -23 -497 -28 -102 -103 -327 -118 -351 -7 -12 129 -11
202 2 80 14 174 45 262 86 79 37 265 158 296 192 71 79 -23 -90 -115 -205
-182 -229 -467 -361 -849 -393 l-104 -8 -49 41 c-64 53 -133 145 -169 224 -16
35 -44 134 -63 224 -19 88 -37 170 -41 182 -3 11 62 -46 145 -128 l150 -150
22 20 c63 56 154 212 183 314 63 222 28 487 -116 882 l-39 107 63 78 c135 167
224 314 284 470 15 40 30 71 32 68 3 -2 9 -28 13 -57z m-5662 -473 c84 -43
100 -276 25 -365 -50 -58 -119 -24 -145 72 -16 62 -13 167 6 216 14 35 64 92
81 92 3 0 18 -7 33 -15z"/>
<path d="M9517 6840 c-37 -29 -61 -102 -61 -184 -1 -81 15 -133 51 -176 45
-54 96 -34 133 52 45 105 13 285 -57 317 -32 15 -36 14 -66 -9z"/>
<path d="M4165 8253 c-323 -28 -586 -137 -769 -320 -59 -58 -216 -275 -216
-297 0 -4 21 10 48 31 132 110 320 212 458 248 144 38 292 41 281 6 -3 -9 -28
-81 -56 -161 -70 -199 -93 -315 -93 -470 -1 -204 44 -388 149 -610 l54 -114
-50 -116 c-79 -182 -103 -276 -105 -402 -1 -121 12 -156 33 -86 39 130 177
364 304 518 l54 65 -59 170 c-180 518 -165 826 53 1093 l52 62 141 -137 c77
-76 143 -141 144 -145 2 -5 7 -8 12 -8 4 0 0 35 -10 78 -10 42 -30 127 -44
187 -36 154 -81 241 -178 338 -84 84 -76 81 -203 70z"/>
</g>
</svg>
